# xmcd
#
# Track frame offsets:
#	150
#	16020
#	35840
#	54030
#	76167
#	96095
#	120935
#	138257
#	152325
#	168255
#	187640
#	208309
#	224957
#	243602
#	265030
#	283415
#
# Disc length: 3963 seconds
# Revision: 0
# Processed by: cddbd v1.5.2PL0 Copyright (c) Steve Scherf et al.
# Submitted via: dBpowerAMP V12.0
#
DISCID=d50f7910
DTITLE=Various Artist - Love of the 80`s
DYEAR=1999
DGENRE=Slow Jam
TTITLE0=Peabo Bryson and Roberta Flack - Tonight I Celebrate My Love for You
TTITLE1=Richard Marx - Right Here Waiting
TTITLE2=Hot Chocolate - It Started With A Kiss
TTITLE3=Wilson Phillips - Release Me
TTITLE4=Dr. Hook - Sharing the Night Together
TTITLE5=Spandau Ballet - True
TTITLE6=Kenny Rogers - Lady
TTITLE7=Sheena Easton - One Man Woman
TTITLE8=John Waite - Missing You
TTITLE9=Jaki Graham - Could it be I`m Falling in Love
TTITLE10=Living in a Box - Room in Your Heart
TTITLE11=Don McLean - Crying
TTITLE12=Juicy Newton - Angel of the Morning
TTITLE13=Midge Ure - If I Was
TTITLE14=Alvin Stardust - I Feel Like Buddy Holly
TTITLE15=Goombay Dance Band - I`m Still Lovin` You
EXTD=
EXTT0=
EXTT1=
EXTT2=
EXTT3=
EXTT4=
EXTT5=
EXTT6=
EXTT7=
EXTT8=
EXTT9=
EXTT10=
EXTT11=
EXTT12=
EXTT13=
EXTT14=
EXTT15=
PLAYORDER=
